# xmcd CD database file
#
# Track frame offsets:
#	150
#	43175
#	87067
#	123575
#	154385
#	182535
#	220550
#	227420
#	272342
#	311295
#
# Disc length: 4331 seconds
#
# Revision: 0
# Processed by: cddbd v1.5.1PL2 Copyright (c) Steve Scherf et al.
# Submitted via: CDex 1.51
#
DISCID=7610e90a
DTITLE=Frédéric Favarel - The Search
DYEAR=1996
DGENRE=Jazz
TTITLE0=The Search
TTITLE1=The Slow Walker
TTITLE2=Q.B.
TTITLE3=Pendant La Nuit
TTITLE4=Loudly!
TTITLE5=The Last Rhapsody
TTITLE6=Ikebana Part 1
TTITLE7=Ikebana Part 2
TTITLE8=What Are The Rules?
TTITLE9=Where Are We?
EXTD=YEAR: 1996
EXTT0=
EXTT1=
EXTT2=
EXTT3=
EXTT4=
EXTT5=
EXTT6=
EXTT7=
EXTT8=
EXTT9=
PLAYORDER=
